<svg width="417" height="150" viewBox="0 0 417 150" fill="none" xmlns="http://www.w3.org/2000/svg">
<path d="M114.291 135.631C117.948 134.944 119.737 135.246 123.306 132.63C126.33 130.413 130.451 128.492 132.252 125.039C133.067 123.351 133.404 121.472 133.225 119.606C132.951 115.023 132.089 110.494 130.66 106.131C129.109 101.532 122.177 85.5687 121.046 82.2035C119.814 78.5406 118.449 74.7541 115.687 72.0514C114.164 70.5619 112.301 69.4896 110.404 68.5031C108.91 67.6221 100.874 63.3582 100.216 63.0045C103.633 60.6959 106.421 58.2529 108.842 53.7156C109.336 52.8141 109.731 51.8619 110.021 50.8756C111.699 44.9359 110.714 38.6099 109.717 32.5185C109.159 29.1046 104.853 15.7147 95.948 9.48511C91.7385 6.53957 78.5704 1.32252 73.7742 0.977051C68.9748 1.32046 55.8046 6.53916 51.5951 9.48511C42.6904 15.7147 38.3857 29.1046 37.8258 32.5185C36.8307 38.6095 35.8454 44.9355 37.5232 50.8752C37.8133 51.8614 38.2086 52.8136 38.7023 53.7152C41.1255 58.2566 43.9169 60.7008 47.325 63.0185C46.4654 63.4398 41.0674 66.9617 39.5812 67.8386C37.6848 68.8251 35.8211 69.8974 34.2982 71.3872C31.5361 74.0896 30.1707 77.8761 28.9389 81.539C27.8077 84.9042 20.8761 100.868 19.3248 105.466C17.8959 109.83 17.034 114.359 16.7602 118.942C16.5809 120.807 16.9175 122.687 17.7331 124.374C19.5326 127.827 23.653 129.749 26.679 131.966C29.4107 133.661 32.4763 134.746 35.666 135.147" fill="#008CB9"/>
<path d="M52.3448 50.2568C50.9749 47.2944 50.3042 43.5462 50.6608 38.8003C54.6456 34.853 64.0837 29.504 73.3046 29.504C82.5254 29.504 91.9631 34.853 95.9479 38.8003C96.9109 49.5263 90.5594 58.0389 84.1954 59.6355C81.5039 60.3504 78.7441 60.7774 75.9623 60.9094C73.0279 61.0331 68.0764 60.6699 68.0764 60.6699C61.7829 59.5032 55.365 56.7889 52.3448 50.2568Z" fill="white"/>
<path d="M109.94 83.7309C108.393 90.0342 106.754 96.3359 105.534 102.713C105.321 103.826 105.121 104.945 104.998 106.071C104.879 107.136 104.907 108.215 104.894 109.287C104.866 111.748 104.87 114.21 104.882 116.672C104.899 120.001 104.924 123.33 104.924 126.659C104.924 127.933 106.902 127.935 106.902 126.659C106.902 121.235 106.82 115.81 106.864 110.386C106.873 109.184 106.856 107.975 106.917 106.775C106.926 106.588 106.943 106.401 106.962 106.216C106.985 105.995 107.009 105.803 107.023 105.7C107.101 105.146 107.195 104.595 107.294 104.044C107.836 101.035 108.53 98.0533 109.231 95.0777C110.08 91.4647 110.967 87.8633 111.852 84.2569C112.155 83.0202 110.248 82.4929 109.944 83.7309H109.94Z" fill="#211715"/>
<path d="M113.951 113.666C114.897 114.176 115.815 114.735 116.702 115.34C117.132 115.634 117.553 115.94 117.968 116.254C118.01 116.285 118.083 116.342 118.001 116.277L118.154 116.398C118.269 116.488 118.384 116.579 118.498 116.672C118.712 116.846 118.925 117.023 119.135 117.203C119.322 117.386 119.572 117.488 119.833 117.487C120.094 117.486 120.344 117.381 120.529 117.197C120.714 117.012 120.818 116.762 120.819 116.501C120.82 116.24 120.718 115.989 120.535 115.803C118.813 114.329 116.941 113.04 114.95 111.957C114.723 111.825 114.453 111.788 114.199 111.855C113.946 111.921 113.729 112.086 113.596 112.313C113.464 112.539 113.427 112.809 113.493 113.063C113.56 113.317 113.725 113.534 113.951 113.666Z" fill="#211715"/>
<path d="M37.8943 84.2569C39.4291 90.5107 41.0496 96.7621 42.2715 103.086C42.389 103.695 42.5012 104.306 42.6013 104.918C42.6838 105.422 42.7324 105.742 42.7774 106.168C42.892 107.249 42.8598 108.349 42.8718 109.435C42.8986 111.872 42.8945 114.308 42.8821 116.745C42.8648 120.05 42.8409 123.354 42.8409 126.659C42.8409 127.933 44.8197 127.935 44.8197 126.659C44.8197 121.186 44.9021 115.713 44.8572 110.241C44.8473 109.062 44.8716 107.873 44.8007 106.695C44.72 105.675 44.5804 104.661 44.3827 103.657C43.8443 100.631 43.1459 97.6328 42.4451 94.6415C41.5905 90.998 40.6951 87.364 39.8034 83.7296C39.5 82.4928 37.5912 83.0172 37.8951 84.2556L37.8943 84.2569Z" fill="#211715"/>
<path d="M34.7924 111.957C32.8011 113.039 30.9291 114.328 29.2077 115.802C29.0233 115.988 28.9199 116.239 28.9199 116.501C28.9199 116.763 29.0233 117.015 29.2077 117.201C29.3965 117.381 29.6475 117.482 29.9085 117.482C30.1695 117.482 30.4205 117.381 30.6093 117.201C30.8072 117.032 31.0067 116.865 31.2087 116.701C31.3225 116.608 31.4368 116.517 31.5517 116.426L31.7055 116.306C31.8354 116.205 31.6066 116.381 31.7372 116.282C32.1646 115.957 32.5998 115.643 33.0428 115.339C33.93 114.733 34.8479 114.175 35.793 113.665C36.0179 113.531 36.1811 113.314 36.2475 113.06C36.3139 112.807 36.2781 112.538 36.1479 112.311C36.0117 112.088 35.7948 111.927 35.5426 111.861C35.2903 111.795 35.0223 111.829 34.7945 111.956L34.7924 111.957Z" fill="#211715"/>
<path d="M74.9747 91.9178C58.6961 92.0353 42.4962 92.1302 36.7445 92.1495C36.5271 92.1501 36.3119 92.1935 36.1113 92.2773C35.9107 92.3611 35.7286 92.4837 35.5754 92.6379C35.4223 92.7922 35.301 92.9752 35.2187 93.1764C35.1363 93.3776 35.0944 93.5931 35.0955 93.8105C35.1289 103.156 35.5795 135.498 35.9229 147.386C35.9355 147.822 36.1194 148.235 36.4348 148.536C36.7501 148.837 37.1715 149.001 37.6073 148.994C42.8054 148.913 58.9055 148.963 74.9743 149.018C91.0426 148.963 107.143 148.913 112.341 148.994C112.777 149.001 113.198 148.837 113.514 148.536C113.829 148.235 114.013 147.822 114.025 147.386C114.369 135.498 114.82 103.156 114.853 93.8105C114.854 93.5931 114.812 93.3776 114.729 93.1764C114.647 92.9752 114.526 92.7922 114.373 92.6379C114.22 92.4837 114.037 92.3611 113.837 92.2773C113.636 92.1935 113.421 92.1501 113.204 92.1495C107.453 92.1302 91.2529 92.0353 74.9747 91.9178Z" fill="#0C0C0C"/>
<path d="M42.9476 144.133C50.8356 144.084 58.7245 144.126 66.6109 144.15C76.2407 144.18 85.8696 144.135 95.4994 144.121C99.3334 144.115 103.167 144.109 107.001 144.133C108.275 144.141 108.276 142.162 107.001 142.154C99.1132 142.105 91.2244 142.147 83.338 142.171C73.7086 142.201 64.0792 142.156 54.4498 142.142C50.6159 142.136 46.782 142.13 42.948 142.154C41.675 142.162 41.6721 144.141 42.9476 144.133Z" fill="#7EFFE9"/>
<path d="M35.6639 134.158C35.5955 134.15 35.5268 134.141 35.4578 134.132C35.6004 134.151 35.4228 134.127 35.405 134.124C35.2591 134.103 35.1132 134.081 34.9676 134.056C34.6161 133.998 34.2661 133.931 33.9176 133.855C33.1858 133.693 32.4633 133.493 31.7533 133.253C29.963 132.671 28.2645 131.837 26.709 130.777C24.073 128.928 20.8612 127.399 19.0357 124.634C18.0443 123.04 17.5864 121.172 17.7285 119.3C18.0094 113.991 19.1089 108.758 20.9882 103.785C22.8532 98.9059 24.9161 94.1024 26.9118 89.2769C27.7557 87.2363 28.6062 85.1977 29.4006 83.1373C30.4127 80.5125 31.1662 77.8031 32.5568 75.3371C33.4385 73.7249 34.6292 72.3022 36.0609 71.1502C37.4214 70.0784 38.9805 69.3672 40.4489 68.4706C42.5807 67.1675 44.6617 65.7827 46.7918 64.4767C47.1093 64.2817 47.4271 64.085 47.7549 63.9082C48.8758 63.303 47.8785 61.5938 46.7564 62.1994C44.6337 63.3455 42.6368 64.7615 40.5973 66.0465C39.4138 66.7923 38.177 67.4276 36.9786 68.147C35.2192 69.1576 33.6604 70.4828 32.3799 72.0568C30.1488 74.9054 29.0613 78.2978 27.8534 81.6544C27.1872 83.5058 26.4179 85.3234 25.6685 87.1415C23.582 92.2122 21.4223 97.2581 19.4253 102.367C18.3469 105.07 17.4964 107.859 16.883 110.704C16.4283 112.911 16.0991 115.143 15.8968 117.387C15.6986 119.524 15.614 121.687 16.3788 123.736C17.6823 127.224 20.8653 129.305 23.8537 131.248C24.578 131.72 25.3032 132.191 26.0049 132.696C26.8725 133.276 27.794 133.772 28.7566 134.176C30.3156 134.904 31.9515 135.454 33.6336 135.816C34.3051 135.955 34.9833 136.055 35.6639 136.139C35.9259 136.137 36.1767 136.033 36.362 135.848C36.5472 135.662 36.6519 135.411 36.6533 135.149C36.647 134.889 36.5408 134.641 36.3566 134.457C36.1724 134.273 35.9244 134.166 35.6639 134.16V134.158Z" fill="#211715"/>
<path d="M114.554 136.585C116.184 136.282 117.864 136.165 119.463 135.709C121.338 135.173 122.869 134.12 124.451 133.025C127.435 130.963 130.92 129.198 132.851 125.988C133.94 124.047 134.415 121.822 134.212 119.606C134.059 117.256 133.769 114.917 133.341 112.602C132.744 109.422 131.847 106.306 130.662 103.296C128.594 97.9738 126.336 92.7267 124.168 87.4457C123.428 85.6438 122.652 83.8443 122.02 82.0011C120.714 78.1956 119.331 74.2327 116.386 71.3514C114.157 69.1706 111.246 67.8081 108.529 66.3343C106.24 65.0926 103.942 63.8686 101.644 62.6447L100.806 62.1982C99.6826 61.5984 98.6821 63.3059 99.8071 63.9066C101.729 64.9331 103.651 65.9597 105.573 66.9865C106.673 67.5777 107.773 68.1697 108.868 68.7728C110.045 69.4225 111.247 70.0388 112.388 70.7516C114.067 71.7647 115.516 73.1189 116.639 74.7265C117.712 76.3705 118.581 78.1385 119.227 79.9918C119.994 82.0605 120.7 84.1345 121.53 86.1801C123.637 91.3815 125.846 96.5413 127.935 101.75C128.876 103.991 129.696 106.282 130.392 108.611C131.007 110.815 131.475 113.058 131.794 115.324C131.95 116.422 132.068 117.527 132.161 118.633C132.289 119.735 132.297 120.848 132.184 121.952C131.931 123.753 131.091 125.421 129.793 126.695C128.527 127.899 127.135 128.964 125.642 129.87C124.889 130.361 124.131 130.845 123.392 131.358C122.607 131.941 121.79 132.48 120.945 132.974C119.588 133.659 118.12 134.096 116.61 134.266C115.748 134.395 114.885 134.518 114.027 134.678C113.776 134.75 113.562 134.918 113.433 135.145C113.304 135.373 113.269 135.642 113.336 135.895C113.411 136.145 113.579 136.357 113.806 136.486C114.033 136.614 114.301 136.65 114.553 136.586L114.554 136.585Z" fill="#211715"/>
<path d="M52.7016 67.3987C55.3922 69.1137 58.3817 70.3069 61.5139 70.916C61.7666 70.9789 62.0339 70.9423 62.2604 70.8137C62.4869 70.6851 62.6553 70.4744 62.7308 70.2251C62.7982 69.9721 62.7636 69.7028 62.6344 69.4752C62.5051 69.2476 62.2916 69.0798 62.0399 69.0081C59.0755 68.4385 56.2458 67.3126 53.7004 65.6899C52.6232 65.0031 51.6297 66.7152 52.7016 67.3987Z" fill="#211715"/>
<path d="M47.747 62.1118C45.2276 60.4729 43.0242 58.3934 41.2425 55.9729C40.1667 54.5156 39.2998 52.9152 38.6668 51.218C38.0778 49.3979 37.7386 47.5062 37.6584 45.5949C37.4304 41.6179 37.9931 37.6512 38.626 33.7352C38.8954 32.0846 39.2982 30.4586 39.8306 28.8731C41.4243 24.0803 43.7358 19.3456 46.9188 15.3512C48.5287 13.2465 50.4748 11.4218 52.6788 9.95074C54.6046 8.7727 56.6106 7.731 58.682 6.83329C61.1363 5.71938 63.6373 4.71624 66.185 3.82385C68.3094 3.031 70.5016 2.43351 72.7345 2.0388C72.8862 2.01571 72.5696 2.059 72.7171 2.0388C72.7584 2.03385 72.7967 2.02808 72.8367 2.02396C72.9393 2.01282 73.0428 2.00128 73.1442 1.99262C73.331 1.97655 73.5186 1.96542 73.7061 1.96335C74.0996 1.9634 74.4926 1.98929 74.8827 2.04086C74.9981 2.05487 74.846 2.0355 74.8332 2.03385C74.8918 2.04209 74.9503 2.05034 75.0084 2.05941C75.1292 2.07837 75.2496 2.09775 75.37 2.11877C75.626 2.16371 75.8808 2.214 76.1351 2.26801C76.6612 2.38014 77.1835 2.50959 77.7017 2.64893C80.2479 3.35789 82.749 4.21968 85.1915 5.22963C87.5962 6.19883 89.9682 7.26492 92.2657 8.46704C94.2891 9.47948 96.1621 10.768 97.8311 12.2956C101.763 16.001 104.606 20.9463 106.599 25.862C107.346 27.6649 107.968 29.5167 108.462 31.4043C108.673 32.2367 108.81 33.0752 108.946 33.9228C109.261 35.8818 109.555 37.8441 109.738 39.8205C110.092 43.6383 110.127 47.7283 108.814 51.3854C108.172 53.0435 107.31 54.608 106.251 56.0368C105.353 57.2951 104.321 58.4525 103.173 59.4886C102.108 60.4385 100.978 61.3139 99.7926 62.1085C98.7484 62.8233 99.737 64.5408 100.792 63.8168C103.497 62.0471 105.875 59.8197 107.816 57.2344C108.948 55.6968 109.882 54.0223 110.594 52.2507C111.278 50.3536 111.686 48.3684 111.807 46.3555C112.151 42.2462 111.601 38.1208 110.96 34.0675C110.684 32.1895 110.257 30.3369 109.681 28.5281C108.042 23.3678 105.525 18.5291 102.241 14.225C100.506 11.9392 98.4075 9.95383 96.0292 8.34832C94.0537 7.11254 91.9888 6.02598 89.8516 5.09771C87.2247 3.89682 84.5434 2.80188 81.8127 1.85782C79.5594 1.01298 77.2227 0.410313 74.8419 0.0599861C72.9418 -0.167989 71.0294 0.29497 69.2072 0.79833C66.6006 1.54209 64.039 2.43555 61.5352 3.47426C56.8261 5.38216 51.9355 7.44425 48.2092 10.9962C44.0442 14.965 41.1246 20.1511 38.9904 25.4465C38.2345 27.2778 37.6099 29.1607 37.1212 31.0807C36.8739 32.0969 36.7275 33.1333 36.5651 34.166C36.2394 36.2359 35.9438 38.3137 35.7736 40.403C35.59 42.447 35.582 44.503 35.7497 46.5484C35.8815 48.5575 36.3071 50.5365 37.0128 52.4222C38.3679 55.6954 40.4402 58.6229 43.077 60.9888C44.2372 62.0122 45.4636 62.958 46.7481 63.8201C47.8019 64.5416 48.7929 62.8274 47.747 62.1118Z" fill="#211715"/>
<path d="M94.4 65.6899C91.8546 67.3125 89.0249 68.4384 86.0605 69.0081C85.8088 69.0799 85.5954 69.2476 85.4661 69.4752C85.3368 69.7028 85.302 69.9721 85.3692 70.225C85.4436 70.4751 85.6119 70.6867 85.8388 70.8155C86.0657 70.9442 86.3337 70.9803 86.5865 70.916C89.7185 70.3069 92.7079 69.1137 95.3984 67.3986C96.4703 66.7159 95.478 65.0026 94.4 65.6899Z" fill="#211715"/>
<path d="M69.4241 117.042C69.4439 116.95 69.4732 116.863 69.4995 116.772C69.5354 116.649 69.4097 116.949 69.4723 116.836C69.4925 116.8 69.5094 116.761 69.53 116.725C69.5749 116.641 69.6265 116.561 69.6842 116.486C69.6958 116.492 69.5173 116.673 69.6496 116.537C69.6871 116.499 69.7217 116.458 69.7597 116.42C69.7889 116.391 69.9386 116.221 69.9765 116.226C69.9794 116.226 69.7704 116.365 69.9328 116.263C69.9695 116.24 70.0045 116.215 70.0416 116.192C70.115 116.145 70.1907 116.103 70.2688 116.063C70.3068 116.043 70.3458 116.024 70.3859 116.007C70.2585 116.059 70.2296 116.072 70.2993 116.045C70.3294 116.033 70.3595 116.022 70.3904 116.012C70.4751 115.983 70.5613 115.958 70.6485 115.937C70.6934 115.926 70.7384 115.919 70.7829 115.908C70.9548 115.867 70.7528 115.918 70.7239 115.913C70.8156 115.914 70.9073 115.909 70.9981 115.896C71.055 115.896 71.1119 115.896 71.1687 115.901C71.3423 115.912 71.21 115.935 71.1415 115.893C71.2264 115.922 71.3142 115.943 71.4033 115.955L71.4668 115.976C71.5493 116.007 71.551 116.007 71.4722 115.976C71.3769 115.89 71.4594 115.976 71.5043 115.999C71.5493 116.023 71.5798 116.049 71.6185 116.07C71.7344 116.133 71.4841 115.943 71.5707 116.032C71.6049 116.067 71.6424 116.103 71.6791 116.136C71.8061 116.25 71.5967 116.004 71.6581 116.1C71.7026 116.169 71.7475 116.236 71.7859 116.309C71.8737 116.477 71.748 116.309 71.7752 116.269C71.7867 116.31 71.8005 116.349 71.8164 116.387C71.8415 116.467 71.8576 116.549 71.877 116.63C71.8968 116.724 71.8473 116.732 71.8675 116.554C71.8671 116.617 71.8701 116.679 71.8766 116.742C71.8766 116.783 71.8737 116.824 71.8729 116.865C71.8729 116.986 71.8222 116.885 71.8885 116.788C71.8675 116.819 71.8679 117.03 71.8271 117.033C71.8337 117.033 71.9149 116.845 71.8473 116.983C71.8275 117.024 71.8086 117.066 71.7875 117.105C71.7356 117.205 71.6782 117.303 71.6156 117.397C71.5945 117.437 71.5685 117.475 71.5381 117.508C71.6053 117.482 71.6507 117.373 71.5682 117.467C71.5014 117.544 71.4346 117.62 71.3621 117.692C71.2978 117.756 71.2281 117.813 71.1617 117.874C71.064 117.965 71.3126 117.771 71.203 117.844C71.1428 117.886 71.0851 117.927 71.0236 117.965C70.9412 118.017 70.8517 118.057 70.7672 118.106C70.6485 118.175 70.9321 118.05 70.8027 118.093C70.745 118.112 70.6889 118.135 70.6303 118.152C70.5718 118.17 70.3851 118.179 70.3475 118.217C70.369 118.196 70.5821 118.207 70.3945 118.206C70.324 118.206 70.2527 118.206 70.1826 118.206C70.0202 118.21 70.2589 118.183 70.2465 118.219C70.1909 118.211 70.1358 118.199 70.0816 118.184C70.0404 118.173 69.9992 118.156 69.9538 118.145C69.8838 118.12 69.9112 118.133 70.0363 118.184C70.0058 118.17 69.9761 118.156 69.9468 118.14C69.9077 118.119 69.8693 118.099 69.8318 118.074C69.6727 117.973 69.8368 118.038 69.8462 118.091C69.8165 118.058 69.7845 118.028 69.7506 118C69.6022 117.876 69.8363 118.159 69.7333 117.984C69.6809 117.895 69.556 117.742 69.5519 117.637C69.5519 117.656 69.6298 117.847 69.5638 117.661C69.5383 117.588 69.5119 117.517 69.4896 117.443C69.4752 117.394 69.462 117.344 69.4484 117.295C69.441 117.262 69.4158 117.05 69.4266 117.201C69.4385 117.366 69.4266 117.115 69.4266 117.105C69.4266 117.046 69.462 116.805 69.4224 117.038C69.4859 116.786 69.4495 116.518 69.3208 116.291C69.1921 116.065 68.9811 115.896 68.7315 115.821C68.4786 115.755 68.2097 115.79 67.9822 115.919C67.7548 116.048 67.5869 116.261 67.5145 116.512C67.3963 117.263 67.522 118.033 67.8732 118.707C68.0239 119.021 68.2362 119.302 68.4976 119.532C68.7589 119.762 69.0639 119.938 69.3944 120.048C70.6279 120.482 72.0328 119.904 72.8767 118.973C73.3117 118.529 73.6241 117.979 73.7837 117.378C73.9125 116.728 73.8336 116.054 73.5582 115.451C73.3144 114.91 72.8867 114.473 72.3511 114.218C71.7146 113.934 71.0057 113.854 70.322 113.989C69.661 114.098 69.0449 114.394 68.5471 114.842C68.0493 115.29 67.6906 115.872 67.5137 116.518C67.4792 116.643 67.4697 116.774 67.4857 116.903C67.5017 117.032 67.543 117.156 67.6071 117.269C67.6713 117.382 67.7571 117.482 67.8596 117.561C67.9621 117.641 68.0794 117.7 68.2047 117.735C68.3299 117.769 68.4608 117.779 68.5897 117.763C68.7187 117.747 68.8432 117.705 68.9562 117.641C69.0692 117.577 69.1685 117.491 69.2484 117.389C69.3282 117.286 69.3871 117.169 69.4216 117.044L69.4241 117.042Z" fill="#7EFFE9"/>
<path d="M82.8449 116.517C82.309 114.002 78.5039 112.913 76.9765 115.126C76.6528 115.625 76.4887 116.21 76.5061 116.805C76.533 117.421 76.7447 118.015 77.1138 118.509C77.482 119.076 78.0012 119.53 78.613 119.818C79.2247 120.106 79.9048 120.218 80.5767 120.141C80.9479 120.081 81.3014 119.941 81.6126 119.73C81.9238 119.519 82.1853 119.242 82.3787 118.92C82.8165 118.2 82.9821 117.348 82.8458 116.517C82.775 116.264 82.6073 116.05 82.3793 115.92C82.1513 115.791 81.8814 115.757 81.6284 115.826C81.3794 115.902 81.169 116.07 81.0405 116.296C80.9119 116.523 80.8751 116.79 80.9374 117.043C80.9024 116.836 80.9329 116.976 80.9317 117.025C80.9317 117.089 80.9263 117.159 80.9288 117.223C80.9346 117.364 80.97 117.05 80.9354 117.187C80.923 117.236 80.9152 117.287 80.9028 117.336C80.8748 117.449 80.8352 117.555 80.7985 117.666C80.782 117.715 80.7573 117.841 80.8105 117.642C80.789 117.704 80.7614 117.763 80.728 117.819C80.7041 117.865 80.679 117.911 80.6513 117.955L80.6307 117.989C80.5631 118.086 80.5723 118.075 80.6584 117.957C80.6302 117.99 80.5997 118.022 80.5668 118.052C80.4654 118.159 80.6122 118.035 80.6147 118.023C80.6064 118.067 80.4275 118.139 80.3879 118.16C80.2308 118.247 80.4201 118.134 80.4411 118.14C80.3755 118.153 80.3114 118.172 80.2494 118.198C80.205 118.203 80.1611 118.211 80.1183 118.224C80.1447 118.21 80.3553 118.21 80.1826 118.211C80.1228 118.211 79.9427 118.243 79.8982 118.205C79.9464 118.246 80.0787 118.24 79.946 118.209C79.8986 118.198 79.8516 118.189 79.8046 118.176C79.7456 118.161 79.6879 118.143 79.6306 118.123C79.4245 118.05 79.6306 118.12 79.6306 118.126C79.6306 118.133 79.3903 118 79.3725 117.989C79.3202 117.958 79.2695 117.924 79.2192 117.89C79.1895 117.869 79.0737 117.772 79.1808 117.865C79.2942 117.963 79.0737 117.766 79.0497 117.744C78.9678 117.666 78.8902 117.583 78.8172 117.496C78.7913 117.466 78.7175 117.346 78.7888 117.464C78.8601 117.583 78.7888 117.457 78.7665 117.427C78.7096 117.345 78.6565 117.256 78.6074 117.167C78.5723 117.084 78.5324 117.002 78.4878 116.923C78.5105 116.955 78.5501 117.13 78.5122 116.971C78.499 116.914 78.4932 116.845 78.4747 116.79C78.4837 116.816 78.4887 117.032 78.4903 116.867C78.4903 116.826 78.4866 116.785 78.4866 116.744C78.4866 116.702 78.4899 116.661 78.4911 116.62C78.4944 116.451 78.4837 116.672 78.4759 116.695C78.5014 116.618 78.5068 116.531 78.5291 116.451C78.5406 116.409 78.5555 116.371 78.5666 116.331C78.621 116.136 78.473 116.504 78.5633 116.339C78.6045 116.267 78.6457 116.198 78.687 116.128C78.7797 115.978 78.6577 116.188 78.6457 116.184C78.683 116.15 78.7178 116.114 78.75 116.075C78.8082 116.02 78.8613 116.034 78.7678 116.054L78.7183 116.092C78.7459 116.073 78.7739 116.054 78.8028 116.037C78.8407 116.014 78.8824 115.996 78.9199 115.972C78.9867 115.939 78.9592 115.949 78.8374 116.002C78.8684 115.99 78.8997 115.979 78.9318 115.969C79.0176 115.94 79.1046 115.925 79.192 115.902C79.3231 115.868 78.9937 115.914 79.1297 115.909C79.1866 115.909 79.2431 115.901 79.3 115.899C79.3919 115.899 79.4826 115.903 79.5741 115.909C79.7271 115.918 79.5329 115.886 79.516 115.899C79.5378 115.881 79.6949 115.934 79.718 115.941C79.8157 115.964 79.912 115.992 80.0066 116.026C80.0424 116.039 80.1735 116.096 80.0392 116.035C79.8883 115.967 80.0981 116.067 80.127 116.082C80.2138 116.127 80.2983 116.177 80.3801 116.23C80.4178 116.252 80.4536 116.277 80.4873 116.305C80.374 116.215 80.3584 116.203 80.4403 116.27L80.4893 116.312C80.5718 116.383 80.6431 116.461 80.7169 116.54C80.7697 116.596 80.7746 116.663 80.6827 116.488C80.7107 116.542 80.7569 116.593 80.789 116.645C80.8113 116.681 80.8303 116.717 80.8521 116.754C80.8686 116.785 80.9552 116.952 80.8822 116.806C80.8092 116.66 80.8884 116.835 80.897 116.863C80.9152 116.923 80.9292 116.984 80.9424 117.045C81.0136 117.297 81.1813 117.51 81.4091 117.64C81.6369 117.769 81.9064 117.804 82.1594 117.736C82.4084 117.659 82.6186 117.49 82.7463 117.263C82.874 117.036 82.9093 116.769 82.8449 116.517Z" fill="#7EFFE9"/>
<path d="M84.1832 110.525C80.9124 107.21 75.6524 106.345 71.245 107.474C68.6947 108.084 66.4367 109.564 64.8597 111.659C64.1124 112.679 63.5993 113.852 63.357 115.093C63.1148 116.334 63.1492 117.614 63.458 118.84C64.1382 121.536 66.1504 124.402 68.8919 125.267L68.1655 124.312C68.1815 125.297 68.1968 126.281 68.2117 127.266C68.2191 127.76 68.2158 128.255 68.5943 128.626C68.9699 128.936 69.4392 129.11 69.9262 129.121C70.8992 129.221 71.9092 129.162 72.8858 129.165C75.0823 129.172 77.2808 129.188 79.4769 129.148C80.482 129.13 81.6742 128.942 81.7587 127.721C81.8366 126.592 81.7962 125.443 81.8148 124.312L81.0884 125.267C83.8534 124.395 85.8825 121.485 86.5417 118.76C87.2705 115.747 86.2889 112.747 84.1815 110.525C83.3034 109.599 81.9059 111 82.7823 111.924C83.5987 112.734 84.1966 113.737 84.5203 114.841C84.844 115.944 84.8829 117.112 84.6333 118.234C84.3558 119.364 83.8437 120.423 83.1303 121.342C82.4959 122.257 81.6012 122.959 80.5623 123.358C80.3559 123.42 80.1742 123.545 80.0437 123.717C79.9132 123.888 79.8404 124.097 79.836 124.312C79.8261 124.903 79.8167 125.493 79.8079 126.085C79.8038 126.347 79.7998 126.61 79.796 126.873C79.8093 127.127 79.8004 127.381 79.7692 127.632L80.0235 127.196C80.2321 127.001 80.0128 127.144 79.8801 127.159C79.7383 127.176 79.5915 127.17 79.4489 127.172C79.3178 127.174 79.1867 127.176 79.0556 127.177C78.6788 127.181 78.302 127.183 77.9252 127.185C76.947 127.19 75.9688 127.192 74.9903 127.191C74.0119 127.191 73.0337 127.188 72.0555 127.185C71.6911 127.184 71.3267 127.181 70.9622 127.177C70.8278 127.177 70.6934 127.175 70.5595 127.172C70.4358 127.172 70.3121 127.172 70.1884 127.163C70.0487 127.152 69.7473 126.998 69.9572 127.196L70.2115 127.632C70.1417 127.12 70.1287 126.601 70.1728 126.085C70.1637 125.495 70.1544 124.904 70.1447 124.312C70.1405 124.097 70.0678 123.888 69.9372 123.717C69.8067 123.545 69.6249 123.42 69.4183 123.358C67.5047 122.755 66.0791 120.618 65.502 118.791C65.1928 117.836 65.1035 116.824 65.2407 115.83C65.3779 114.837 65.7381 113.887 66.2943 113.052C68.4434 109.745 72.5531 108.83 76.2498 109.047C78.7035 109.185 81.0242 110.207 82.7827 111.924C83.6798 112.833 85.079 111.432 84.1832 110.525Z" fill="#7EFFE9"/>
<path d="M76.075 125.49V127.724C76.0776 127.986 76.181 128.237 76.3635 128.425C76.5019 128.564 76.6784 128.658 76.8707 128.697C77.0629 128.735 77.2622 128.715 77.4433 128.64C77.6244 128.565 77.7791 128.438 77.8878 128.275C77.9965 128.112 78.0542 127.92 78.0538 127.724V125.49C78.0511 125.228 77.9478 124.977 77.7652 124.789C77.6268 124.65 77.4503 124.555 77.2581 124.517C77.0658 124.478 76.8665 124.498 76.6854 124.573C76.5043 124.648 76.3496 124.775 76.2409 124.939C76.1322 125.102 76.0745 125.293 76.075 125.49Z" fill="#7EFFE9"/>
<path d="M71.9331 125.49V127.724C71.9358 127.986 72.0391 128.237 72.2217 128.425C72.3601 128.564 72.5366 128.658 72.7288 128.697C72.9211 128.735 73.1204 128.715 73.3015 128.64C73.4826 128.565 73.6373 128.438 73.746 128.275C73.8546 128.112 73.9124 127.92 73.9119 127.724V125.49C73.9093 125.228 73.806 124.977 73.6233 124.789C73.485 124.65 73.3085 124.555 73.1162 124.517C72.924 124.478 72.7246 124.498 72.5436 124.573C72.3625 124.648 72.2078 124.775 72.0991 124.939C71.9904 125.102 71.9326 125.293 71.9331 125.49Z" fill="#7EFFE9"/>
<path d="M50.6608 38.8003C54.6457 34.853 64.0838 29.504 73.3046 29.504C82.5254 29.504 91.9631 34.853 95.948 38.8003C96.3227 41.1823 80.0049 35.6528 73.0313 35.6528C67.6262 35.6528 50.3042 43.5462 50.6608 38.8003Z" fill="#D9D9D9"/>
<path d="M53.8665 52.8705C53.2768 52.0491 52.767 51.1732 52.344 50.2548C51.94 49.3765 51.6091 48.4665 51.3546 47.5339L52.1754 47.3278C57.4996 45.9909 65.525 43.2737 70.1447 40.308C71.2495 39.5989 72.4611 38.8127 73.7626 38.9863C74.5623 39.1549 75.3098 39.5132 75.9422 40.0309L76.3734 40.308C80.9931 43.2737 89.0184 45.9909 94.3426 47.3278L95.1007 47.5183C93.199 53.9119 88.7005 58.5072 84.1963 59.6385C81.5047 60.3533 78.7449 60.7803 75.9632 60.9123C73.0288 61.036 68.0772 60.6728 68.0772 60.6728C62.6977 59.6727 57.2284 57.5455 53.8665 52.8705Z" fill="#211715"/>
<path d="M52.4376 48.2801C55.1758 47.5904 57.8839 46.7737 60.5511 45.8478C63.4073 44.8933 66.1905 43.7328 68.8786 42.3754C70.1154 41.7331 71.2437 40.8777 72.4957 40.277C72.8015 40.1063 73.1403 40.0033 73.4893 39.9748C73.8383 39.9464 74.1893 39.9932 74.5187 40.1121C75.1586 40.4318 75.7687 40.8081 76.3416 41.2363C78.9157 42.7991 81.6316 44.1153 84.4531 45.1676C87.5913 46.41 90.8059 47.4502 94.0771 48.2817C95.3139 48.5934 95.8391 46.6855 94.6032 46.3738C91.6882 45.6316 88.8179 44.7242 86.0061 43.6559C83.1427 42.6233 80.381 41.3278 77.7565 39.786C76.4117 38.9677 75.1276 37.8361 73.4435 37.9878C71.8122 38.135 70.5264 39.1681 69.161 39.9641C66.6377 41.377 63.993 42.5612 61.2586 43.5025C58.1931 44.6177 55.0729 45.5761 51.9099 46.3738C50.6756 46.6847 51.1988 48.5938 52.436 48.2817L52.4376 48.2801Z" fill="#211715"/>
<path d="M72.6479 42.3078C72.5836 47.571 72.6652 52.8346 72.6009 58.097C72.5857 59.3709 74.5645 59.3717 74.5797 58.097C74.644 52.8342 74.5624 47.5706 74.6267 42.3078C74.642 41.0339 72.6632 41.0331 72.6479 42.3078Z" fill="#4D4544"/>
<path d="M53.1982 49.7556C51.6379 46.343 51.3843 42.4958 51.6502 38.8004L51.3617 39.5012C53.3325 37.6389 55.5523 36.0594 57.9577 34.8077C60.9452 33.1627 64.1463 31.9396 67.4696 31.1733C70.8752 30.3879 74.4044 30.2983 77.8456 30.9099C81.2341 31.5467 84.5128 32.6699 87.5801 34.2446C90.3347 35.6405 93.0375 37.3254 95.248 39.5012L94.9594 38.8004C95.4079 43.3568 94.4128 47.9389 92.1148 51.8989C90.3302 54.8848 87.573 57.6444 84.2491 58.5972C80.7623 59.5718 77.1499 60.0227 73.5305 59.9349C71.8164 59.9036 70.1022 59.8178 68.3918 59.702C68.2887 59.6954 68.1857 59.6929 68.0814 59.6806C68.4165 59.7218 67.9499 59.6393 67.9185 59.6352L67.6365 59.5787C67.354 59.521 67.0722 59.46 66.791 59.3957C65.7541 59.1614 64.7296 58.8752 63.7214 58.5382C61.5384 57.8387 59.4894 56.7749 57.6613 55.3919C55.7497 53.8918 54.2206 51.9603 53.1991 49.7556C53.0651 49.5306 52.8481 49.3673 52.5948 49.3009C52.3416 49.2345 52.0723 49.2703 51.8452 49.4006C51.6231 49.5371 51.4621 49.7541 51.396 50.0063C51.3299 50.2585 51.3637 50.5265 51.4903 50.7545C53.3256 54.6746 56.6228 57.616 60.5314 59.394C62.4171 60.2419 64.3853 60.8925 66.4047 61.3358C67.7016 61.6028 69.0191 61.757 70.3426 61.7966C72.2768 61.8964 74.2235 61.9822 76.1599 61.8898C78.4755 61.7718 80.7767 61.4545 83.0379 60.9416C84.216 60.702 85.3664 60.3415 86.4707 59.8661C88.0585 59.1199 89.5028 58.1006 90.7379 56.8546C93.6939 53.855 95.7048 50.0539 96.5214 45.9225C97.0283 43.5846 97.1682 41.1821 96.9361 38.8012C96.8401 37.9396 95.7154 37.2231 95.081 36.7082C94.2969 36.0723 93.4846 35.4727 92.6442 34.9096C88.7473 32.2847 84.4084 30.3853 79.8363 29.3029C77.383 28.7145 74.8621 28.4558 72.3403 28.5337C69.8196 28.6482 67.3223 29.0707 64.9041 29.7919C60.5189 31.0634 56.3909 33.0947 52.7081 35.7934C51.9503 36.348 51.2211 36.9404 50.5231 37.5686C50.1294 37.9268 49.7308 38.2336 49.6718 38.8004C49.5997 39.4971 49.5869 40.2062 49.5791 40.9062C49.5294 43.2529 49.8117 45.5948 50.4176 47.8625C50.6989 48.8528 51.0573 49.8196 51.4895 50.7541C51.6234 50.9791 51.8404 51.1424 52.0937 51.2088C52.347 51.2752 52.6162 51.2393 52.8433 51.109C53.0652 50.9724 53.2259 50.7555 53.292 50.5034C53.3581 50.2514 53.3245 49.9835 53.1982 49.7556Z" fill="#211715"/>
<path d="M74.9747 90.9284C63.5982 91.0108 52.2217 91.0821 40.8451 91.1423L38.2315 91.1543C37.4449 91.1576 36.5482 91.0521 35.8062 91.3415C34.616 91.8048 34.1023 92.8969 34.1077 94.1159C34.1096 94.6733 34.1128 95.2308 34.1172 95.7884C34.1395 98.9974 34.1713 102.207 34.2128 105.416C34.314 113.97 34.439 122.524 34.588 131.077C34.6548 134.904 34.7295 138.73 34.8122 142.556C34.8452 144.011 34.8814 145.466 34.9207 146.922C34.9561 148.195 35.3865 149.334 36.6711 149.817C37.3872 150.087 38.2376 149.974 38.9892 149.967C49.4138 149.873 59.8413 149.957 70.2659 149.991C82.1388 150.03 94.015 149.922 105.889 149.944C107.637 149.947 109.384 149.952 111.132 149.968C111.976 149.976 112.863 150.081 113.636 149.66C114.749 149.053 114.999 147.97 115.032 146.803C115.122 143.531 115.189 140.259 115.253 136.987C115.419 128.412 115.556 119.838 115.665 111.263C115.714 107.491 115.759 103.72 115.798 99.948C115.812 98.5109 115.824 97.0737 115.835 95.6363C115.838 95.0884 115.845 94.5401 115.844 93.9918C115.873 93.3815 115.696 92.7791 115.341 92.2817C114.986 91.7843 114.474 91.4209 113.887 91.2499C113.157 91.0496 112.286 91.1568 111.533 91.1535C110.645 91.1499 109.758 91.1458 108.871 91.1411C106.659 91.1304 104.446 91.1186 102.234 91.1056C96.3453 91.0718 90.4571 91.035 84.569 90.9952C81.3708 90.9737 78.1727 90.9515 74.9747 90.9284C73.7008 90.9189 73.6996 92.8977 74.9747 92.9072C86.1932 92.988 97.4119 93.0585 108.631 93.1187C109.469 93.1233 110.308 93.1273 111.146 93.1306C111.823 93.1335 112.529 93.0807 113.204 93.1389C113.953 93.2036 113.863 93.9308 113.86 94.5026C113.857 95.0608 113.854 95.6191 113.85 96.1776C113.826 99.3758 113.794 102.574 113.752 105.772C113.653 114.12 113.531 122.468 113.386 130.815C113.321 134.575 113.248 138.334 113.167 142.093C113.135 143.569 113.099 145.045 113.06 146.52C113.046 147.043 113.174 147.876 112.483 148C112.169 148.026 111.854 148.024 111.54 147.994C111.197 147.99 110.854 147.987 110.51 147.984C100.234 147.905 89.9563 147.979 79.6805 148.013C68.0295 148.051 56.378 147.948 44.7269 147.964C42.9019 147.966 41.0768 147.97 39.2522 147.986C38.6539 148.046 38.0511 148.049 37.4523 147.994C36.7342 147.85 36.8962 146.904 36.8813 146.356C36.7931 143.073 36.7263 139.789 36.6633 136.506C36.5025 128.135 36.3695 119.764 36.2642 111.393C36.2156 107.712 36.1719 104.031 36.1331 100.35C36.1188 98.9068 36.1062 97.464 36.0952 96.0213C36.0911 95.4717 36.0878 94.922 36.0853 94.3723C36.082 93.7197 36.0873 93.1496 36.89 93.1397C46.4514 93.023 56.016 93.0383 65.5782 92.9748C68.7097 92.9534 71.841 92.9315 74.9722 92.9092C76.2473 92.8977 76.2502 90.9189 74.9747 90.9284Z" fill="white"/>
<path d="M165.341 117.818V121.227H151.227V117.818H165.341ZM155.455 144V114.205C155.455 112.705 155.807 111.455 156.511 110.455C157.216 109.455 158.131 108.705 159.256 108.205C160.381 107.705 161.568 107.455 162.818 107.455C163.807 107.455 164.614 107.534 165.239 107.693C165.864 107.852 166.33 108 166.636 108.136L165.477 111.614C165.273 111.545 164.989 111.46 164.625 111.358C164.273 111.256 163.807 111.205 163.227 111.205C161.898 111.205 160.938 111.54 160.347 112.21C159.767 112.881 159.477 113.864 159.477 115.159V144H155.455ZM177.933 144.614C176.274 144.614 174.768 144.301 173.416 143.676C172.064 143.04 170.99 142.125 170.195 140.932C169.399 139.727 169.001 138.273 169.001 136.568C169.001 135.068 169.297 133.852 169.888 132.92C170.479 131.977 171.268 131.239 172.257 130.705C173.246 130.17 174.337 129.773 175.53 129.511C176.734 129.239 177.945 129.023 179.161 128.864C180.751 128.659 182.041 128.506 183.03 128.403C184.03 128.29 184.757 128.102 185.212 127.841C185.678 127.58 185.911 127.125 185.911 126.477V126.341C185.911 124.659 185.45 123.352 184.53 122.42C183.621 121.489 182.24 121.023 180.388 121.023C178.467 121.023 176.962 121.443 175.871 122.284C174.78 123.125 174.013 124.023 173.57 124.977L169.751 123.614C170.433 122.023 171.342 120.784 172.479 119.898C173.626 119 174.876 118.375 176.229 118.023C177.592 117.659 178.933 117.477 180.251 117.477C181.092 117.477 182.058 117.58 183.149 117.784C184.251 117.977 185.314 118.381 186.337 118.994C187.371 119.608 188.229 120.534 188.911 121.773C189.592 123.011 189.933 124.67 189.933 126.75V144H185.911V140.455H185.706C185.433 141.023 184.979 141.631 184.342 142.278C183.706 142.926 182.859 143.477 181.803 143.932C180.746 144.386 179.456 144.614 177.933 144.614ZM178.547 141C180.138 141 181.479 140.688 182.57 140.062C183.672 139.438 184.501 138.631 185.058 137.642C185.626 136.653 185.911 135.614 185.911 134.523V130.841C185.74 131.045 185.365 131.233 184.786 131.403C184.217 131.562 183.558 131.705 182.808 131.83C182.07 131.943 181.348 132.045 180.643 132.136C179.95 132.216 179.388 132.284 178.956 132.341C177.911 132.477 176.933 132.699 176.024 133.006C175.126 133.301 174.399 133.75 173.842 134.352C173.297 134.943 173.024 135.75 173.024 136.773C173.024 138.17 173.541 139.227 174.575 139.943C175.621 140.648 176.945 141 178.547 141ZM207.912 144.545C205.457 144.545 203.344 143.966 201.571 142.807C199.798 141.648 198.435 140.051 197.48 138.017C196.526 135.983 196.048 133.659 196.048 131.045C196.048 128.386 196.537 126.04 197.514 124.006C198.503 121.96 199.878 120.364 201.639 119.216C203.412 118.057 205.48 117.477 207.844 117.477C209.685 117.477 211.344 117.818 212.821 118.5C214.298 119.182 215.509 120.136 216.452 121.364C217.395 122.591 217.98 124.023 218.207 125.659H214.185C213.878 124.466 213.196 123.409 212.139 122.489C211.094 121.557 209.685 121.091 207.912 121.091C206.344 121.091 204.969 121.5 203.787 122.318C202.616 123.125 201.702 124.267 201.043 125.744C200.395 127.21 200.071 128.932 200.071 130.909C200.071 132.932 200.389 134.693 201.026 136.193C201.673 137.693 202.582 138.858 203.753 139.688C204.935 140.517 206.321 140.932 207.912 140.932C208.957 140.932 209.906 140.75 210.759 140.386C211.611 140.023 212.332 139.5 212.923 138.818C213.514 138.136 213.935 137.318 214.185 136.364H218.207C217.98 137.909 217.418 139.301 216.52 140.54C215.634 141.767 214.457 142.744 212.991 143.472C211.537 144.188 209.844 144.545 207.912 144.545ZM235.065 144.545C232.543 144.545 230.366 143.989 228.537 142.875C226.719 141.75 225.315 140.182 224.327 138.17C223.349 136.148 222.861 133.795 222.861 131.114C222.861 128.432 223.349 126.068 224.327 124.023C225.315 121.966 226.69 120.364 228.452 119.216C230.224 118.057 232.293 117.477 234.656 117.477C236.02 117.477 237.366 117.705 238.696 118.159C240.026 118.614 241.236 119.352 242.327 120.375C243.418 121.386 244.287 122.727 244.935 124.398C245.582 126.068 245.906 128.125 245.906 130.568V132.273H225.724V128.795H241.815C241.815 127.318 241.52 126 240.929 124.841C240.349 123.682 239.52 122.767 238.44 122.097C237.372 121.426 236.111 121.091 234.656 121.091C233.054 121.091 231.668 121.489 230.497 122.284C229.338 123.068 228.446 124.091 227.821 125.352C227.196 126.614 226.884 127.966 226.884 129.409V131.727C226.884 133.705 227.224 135.381 227.906 136.756C228.599 138.119 229.56 139.159 230.787 139.875C232.014 140.58 233.44 140.932 235.065 140.932C236.122 140.932 237.077 140.784 237.929 140.489C238.793 140.182 239.537 139.727 240.162 139.125C240.787 138.511 241.27 137.75 241.611 136.841L245.497 137.932C245.088 139.25 244.401 140.409 243.435 141.409C242.469 142.398 241.276 143.17 239.855 143.727C238.435 144.273 236.838 144.545 235.065 144.545ZM280.662 120H276.435C276.185 118.784 275.747 117.716 275.122 116.795C274.509 115.875 273.759 115.102 272.872 114.477C271.997 113.841 271.026 113.364 269.957 113.045C268.889 112.727 267.776 112.568 266.616 112.568C264.503 112.568 262.588 113.102 260.872 114.17C259.168 115.239 257.81 116.812 256.798 118.892C255.798 120.972 255.298 123.523 255.298 126.545C255.298 129.568 255.798 132.119 256.798 134.199C257.81 136.278 259.168 137.852 260.872 138.92C262.588 139.989 264.503 140.523 266.616 140.523C267.776 140.523 268.889 140.364 269.957 140.045C271.026 139.727 271.997 139.256 272.872 138.631C273.759 137.994 274.509 137.216 275.122 136.295C275.747 135.364 276.185 134.295 276.435 133.091H280.662C280.344 134.875 279.764 136.472 278.923 137.881C278.082 139.29 277.037 140.489 275.787 141.477C274.537 142.455 273.134 143.199 271.577 143.71C270.031 144.222 268.378 144.477 266.616 144.477C263.639 144.477 260.991 143.75 258.673 142.295C256.355 140.841 254.531 138.773 253.202 136.091C251.872 133.409 251.207 130.227 251.207 126.545C251.207 122.864 251.872 119.682 253.202 117C254.531 114.318 256.355 112.25 258.673 110.795C260.991 109.341 263.639 108.614 266.616 108.614C268.378 108.614 270.031 108.869 271.577 109.381C273.134 109.892 274.537 110.642 275.787 111.631C277.037 112.608 278.082 113.801 278.923 115.21C279.764 116.608 280.344 118.205 280.662 120ZM297.584 144.545C295.22 144.545 293.146 143.983 291.362 142.858C289.589 141.733 288.203 140.159 287.203 138.136C286.214 136.114 285.72 133.75 285.72 131.045C285.72 128.318 286.214 125.937 287.203 123.903C288.203 121.869 289.589 120.29 291.362 119.165C293.146 118.04 295.22 117.477 297.584 117.477C299.947 117.477 302.016 118.04 303.788 119.165C305.572 120.29 306.959 121.869 307.947 123.903C308.947 125.937 309.447 128.318 309.447 131.045C309.447 133.75 308.947 136.114 307.947 138.136C306.959 140.159 305.572 141.733 303.788 142.858C302.016 143.983 299.947 144.545 297.584 144.545ZM297.584 140.932C299.379 140.932 300.857 140.472 302.016 139.551C303.175 138.631 304.033 137.42 304.589 135.92C305.146 134.42 305.425 132.795 305.425 131.045C305.425 129.295 305.146 127.665 304.589 126.153C304.033 124.642 303.175 123.42 302.016 122.489C300.857 121.557 299.379 121.091 297.584 121.091C295.788 121.091 294.311 121.557 293.152 122.489C291.993 123.42 291.135 124.642 290.578 126.153C290.021 127.665 289.743 129.295 289.743 131.045C289.743 132.795 290.021 134.42 290.578 135.92C291.135 137.42 291.993 138.631 293.152 139.551C294.311 140.472 295.788 140.932 297.584 140.932ZM325.474 144.545C323.293 144.545 321.366 143.994 319.696 142.892C318.026 141.778 316.719 140.21 315.776 138.188C314.832 136.153 314.361 133.75 314.361 130.977C314.361 128.227 314.832 125.841 315.776 123.818C316.719 121.795 318.031 120.233 319.713 119.131C321.395 118.028 323.338 117.477 325.543 117.477C327.247 117.477 328.594 117.761 329.582 118.33C330.582 118.886 331.344 119.523 331.866 120.239C332.401 120.943 332.815 121.523 333.111 121.977H333.452V109.091H337.474V144H333.588V139.977H333.111C332.815 140.455 332.395 141.057 331.849 141.784C331.304 142.5 330.526 143.142 329.514 143.71C328.503 144.267 327.156 144.545 325.474 144.545ZM326.02 140.932C327.634 140.932 328.997 140.511 330.111 139.67C331.224 138.818 332.071 137.642 332.651 136.142C333.23 134.631 333.52 132.886 333.52 130.909C333.52 128.955 333.236 127.244 332.668 125.778C332.099 124.301 331.259 123.153 330.145 122.335C329.031 121.506 327.656 121.091 326.02 121.091C324.315 121.091 322.895 121.528 321.759 122.403C320.634 123.267 319.787 124.443 319.219 125.932C318.662 127.409 318.384 129.068 318.384 130.909C318.384 132.773 318.668 134.466 319.236 135.989C319.815 137.5 320.668 138.705 321.793 139.602C322.929 140.489 324.338 140.932 326.02 140.932ZM356.378 144.545C353.855 144.545 351.679 143.989 349.849 142.875C348.031 141.75 346.628 140.182 345.639 138.17C344.662 136.148 344.173 133.795 344.173 131.114C344.173 128.432 344.662 126.068 345.639 124.023C346.628 121.966 348.003 120.364 349.764 119.216C351.537 118.057 353.605 117.477 355.969 117.477C357.332 117.477 358.679 117.705 360.009 118.159C361.338 118.614 362.548 119.352 363.639 120.375C364.73 121.386 365.599 122.727 366.247 124.398C366.895 126.068 367.219 128.125 367.219 130.568V132.273H347.037V128.795H363.128C363.128 127.318 362.832 126 362.241 124.841C361.662 123.682 360.832 122.767 359.753 122.097C358.685 121.426 357.423 121.091 355.969 121.091C354.366 121.091 352.98 121.489 351.81 122.284C350.651 123.068 349.759 124.091 349.134 125.352C348.509 126.614 348.196 127.966 348.196 129.409V131.727C348.196 133.705 348.537 135.381 349.219 136.756C349.912 138.119 350.872 139.159 352.099 139.875C353.327 140.58 354.753 140.932 356.378 140.932C357.435 140.932 358.389 140.784 359.241 140.489C360.105 140.182 360.849 139.727 361.474 139.125C362.099 138.511 362.582 137.75 362.923 136.841L366.81 137.932C366.401 139.25 365.713 140.409 364.747 141.409C363.781 142.398 362.588 143.17 361.168 143.727C359.747 144.273 358.151 144.545 356.378 144.545ZM373.338 144V117.818H377.224V121.773H377.497C377.974 120.477 378.838 119.426 380.088 118.619C381.338 117.812 382.747 117.409 384.315 117.409C384.611 117.409 384.98 117.415 385.423 117.426C385.866 117.437 386.202 117.455 386.429 117.477V121.568C386.293 121.534 385.98 121.483 385.491 121.415C385.014 121.335 384.509 121.295 383.974 121.295C382.702 121.295 381.565 121.562 380.565 122.097C379.577 122.619 378.793 123.347 378.213 124.278C377.645 125.199 377.361 126.25 377.361 127.432V144H373.338ZM409.743 123.682L406.129 124.705C405.902 124.102 405.567 123.517 405.124 122.949C404.692 122.369 404.101 121.892 403.351 121.517C402.601 121.142 401.641 120.955 400.47 120.955C398.868 120.955 397.533 121.324 396.464 122.062C395.408 122.79 394.879 123.716 394.879 124.841C394.879 125.841 395.243 126.631 395.97 127.21C396.697 127.79 397.834 128.273 399.379 128.659L403.266 129.614C405.607 130.182 407.351 131.051 408.499 132.222C409.646 133.381 410.22 134.875 410.22 136.705C410.22 138.205 409.788 139.545 408.925 140.727C408.072 141.909 406.879 142.841 405.345 143.523C403.811 144.205 402.027 144.545 399.993 144.545C397.322 144.545 395.112 143.966 393.362 142.807C391.612 141.648 390.504 139.955 390.038 137.727L393.857 136.773C394.22 138.182 394.908 139.239 395.919 139.943C396.942 140.648 398.277 141 399.925 141C401.8 141 403.288 140.602 404.391 139.807C405.504 139 406.061 138.034 406.061 136.909C406.061 136 405.743 135.239 405.107 134.625C404.47 134 403.493 133.534 402.175 133.227L397.811 132.205C395.413 131.636 393.652 130.756 392.527 129.562C391.413 128.358 390.857 126.852 390.857 125.045C390.857 123.568 391.271 122.261 392.101 121.125C392.942 119.989 394.084 119.097 395.527 118.449C396.982 117.801 398.629 117.477 400.47 117.477C403.061 117.477 405.095 118.045 406.572 119.182C408.061 120.318 409.118 121.818 409.743 123.682Z" fill="url(#paint0_linear_58_119)"/>
<defs>
<linearGradient id="paint0_linear_58_119" x1="283.5" y1="98" x2="283.5" y2="150" gradientUnits="userSpaceOnUse">
<stop stop-color="#008CB9"/>
<stop offset="1" stop-color="#7EFFE9"/>
</linearGradient>
</defs>
</svg>
